<svg width="129" height="129" viewBox="0 0 129 129" fill="none" xmlns="http://www.w3.org/2000/svg">
<g opacity="0.1">
<path opacity="0.1" d="M128.12 125.13V128.13H125.12" stroke="#20263C" stroke-miterlimit="10"/>
<path opacity="0.1" d="M119.35 128.13H6.87988" stroke="#20263C" stroke-miterlimit="10" stroke-dasharray="5.77 5.77"/>
<path opacity="0.1" d="M4 128.13H1V125.13" stroke="#20263C" stroke-miterlimit="10"/>
<path opacity="0.1" d="M1 119.36V6.89014" stroke="#20263C" stroke-miterlimit="10" stroke-dasharray="5.77 5.77"/>
<path opacity="0.1" d="M1 4V1H4" stroke="#20263C" stroke-miterlimit="10"/>
<path opacity="0.1" d="M9.76001 1H122.24" stroke="#20263C" stroke-miterlimit="10" stroke-dasharray="5.77 5.77"/>
<path opacity="0.1" d="M125.12 1H128.12V4" stroke="#20263C" stroke-miterlimit="10"/>
<path opacity="0.1" d="M128.12 9.77002V122.24" stroke="#20263C" stroke-miterlimit="10" stroke-dasharray="5.77 5.77"/>
</g>
<path d="M99.8195 86.3772C99.2422 85.4583 98.4875 84.6636 97.5995 84.0397C96.7116 83.4158 95.7081 82.9752 94.6479 82.7435C90.5915 81.8001 87.0735 79.2894 84.8625 75.7601C82.6516 72.2307 81.9276 67.9697 82.8486 63.9082C83.2027 62.3384 83.0851 60.699 82.5105 59.1958C81.9359 57.6926 80.93 56.3927 79.6191 55.4594C78.3081 54.5261 76.7506 54.001 75.1421 53.9499C73.5337 53.8989 71.9461 54.3242 70.5786 55.1725C69.2111 56.0209 68.1248 57.2543 67.456 58.718C66.7873 60.1818 66.5659 61.8104 66.8198 63.3995C67.0736 64.9886 67.7914 66.4673 68.8829 67.6498C69.9743 68.8323 71.3909 69.666 72.9546 70.046C74.9776 70.5023 76.8906 71.3534 78.584 72.5505C80.2774 73.7475 81.7179 75.2671 82.8229 77.0219C83.9279 78.7768 84.6757 80.7325 85.0234 82.7769C85.3712 84.8213 85.312 86.9143 84.8493 88.9358C84.5753 90.239 84.6241 91.5894 84.9916 92.8693C85.3591 94.1492 86.0341 95.3198 86.9577 96.2792C87.8813 97.2385 89.0254 97.9574 90.2905 98.3732C91.5556 98.789 92.9031 98.889 94.2157 98.6647C95.5284 98.4404 96.7662 97.8984 97.8214 97.0861C98.8766 96.2737 99.717 95.2157 100.27 94.0041C100.822 92.7924 101.07 91.4641 100.992 90.1348C100.913 88.8054 100.511 87.5154 99.8195 86.3772Z" fill="#414042"/>
<path d="M49.6144 77.3133C51.0429 78.0928 52.6716 78.4278 54.2917 78.2752C55.9119 78.1226 57.4494 77.4894 58.7072 76.4569C59.965 75.4243 60.8856 74.0395 61.3508 72.4802C61.8161 70.9208 61.8048 69.258 61.3184 67.7051C60.7019 65.7249 60.4823 63.6426 60.6722 61.5774C60.8621 59.5122 61.4576 57.5048 62.4249 55.6703C63.3921 53.8358 64.7119 52.2102 66.3086 50.8867C67.9053 49.5632 69.7475 48.568 71.7296 47.9579C73.2669 47.4764 74.6273 46.5509 75.6398 45.298C76.6523 44.0451 77.2716 42.5207 77.4197 40.9166C77.5679 39.3125 77.2383 37.7004 76.4724 36.2833C75.7065 34.8661 74.5385 33.7071 73.1155 32.9522C71.6924 32.1973 70.0779 31.8801 68.4751 32.0407C66.8722 32.2012 65.3526 32.8322 64.1075 33.8544C62.8624 34.8765 61.9475 36.2441 61.4778 37.785C61.0082 39.3259 61.0048 40.9713 61.4681 42.5141C62.6843 46.4971 62.273 50.7998 60.3244 54.4803C58.3757 58.1608 55.0484 60.9194 51.0706 62.1524C49.5003 62.6078 48.1028 63.524 47.0591 64.7826C46.0154 66.0412 45.3735 67.5841 45.2166 69.2115C45.0598 70.839 45.3951 72.4761 46.1792 73.9108C46.9633 75.3456 48.16 76.5119 49.6144 77.2588V77.3133Z" fill="#414042"/>
<path d="M70.6273 75.9794C69.5416 76.0175 68.4745 76.2719 67.4883 76.7276C66.5021 77.1833 65.6168 77.8311 64.8841 78.6333C62.0416 81.6736 58.1109 83.4648 53.9515 83.6153C49.792 83.7658 45.7421 82.2632 42.6873 79.4362C41.898 78.6956 40.9694 78.1193 39.9554 77.7408C38.9415 77.3623 37.8624 77.1892 36.7809 77.2315C35.4497 77.2943 34.154 77.682 33.0071 78.3607C31.8601 79.0394 30.8968 79.9885 30.2011 81.1251C29.5053 82.2618 29.0984 83.5515 29.0157 84.8816C28.9331 86.2118 29.1772 87.5419 29.7269 88.756C30.2766 89.97 31.115 91.0311 32.1691 91.8466C33.2232 92.6621 34.4608 93.2071 35.774 93.4342C37.0872 93.6613 38.4361 93.5636 39.7028 93.1495C40.9696 92.7354 42.1157 92.0176 43.0411 91.0586C44.4489 89.5344 46.1435 88.3029 48.0279 87.4347C49.9124 86.5665 51.9496 86.0785 54.0229 85.9989C56.0962 85.9193 58.1649 86.2494 60.1104 86.9705C62.0559 87.6917 63.84 88.7895 65.3605 90.2012C66.3504 91.0957 67.5444 91.7339 68.838 92.0601C70.1317 92.3864 71.4855 92.3907 72.7812 92.0727C74.0769 91.7547 75.2748 91.1241 76.2704 90.236C77.266 89.3479 78.0288 88.2293 78.4922 86.9782C78.9555 85.7271 79.1052 84.3816 78.9283 83.0592C78.7513 81.7369 78.253 80.4781 77.4769 79.3928C76.7009 78.3076 75.6709 77.4291 74.4768 76.834C73.2827 76.239 71.961 75.9455 70.6273 75.9794Z" fill="#414042"/>
</svg>
