<svg width="129" height="129" viewBox="0 0 129 129" fill="none" xmlns="http://www.w3.org/2000/svg">
<g opacity="0.1">
<path opacity="0.1" d="M128.12 125.12V128.12H125.12" stroke="#20263C" stroke-miterlimit="10"/>
<path opacity="0.1" d="M119.35 128.12H6.88" stroke="#20263C" stroke-miterlimit="10" stroke-dasharray="5.77 5.77"/>
<path opacity="0.1" d="M3.99997 128.12H1V125.12" stroke="#20263C" stroke-miterlimit="10"/>
<path opacity="0.1" d="M1 119.35V6.87988" stroke="#20263C" stroke-miterlimit="10" stroke-dasharray="5.77 5.77"/>
<path opacity="0.1" d="M1 4V1H3.99997" stroke="#20263C" stroke-miterlimit="10"/>
<path opacity="0.1" d="M9.76001 1H122.24" stroke="#20263C" stroke-miterlimit="10" stroke-dasharray="5.77 5.77"/>
<path opacity="0.1" d="M125.12 1H128.12V4" stroke="#20263C" stroke-miterlimit="10"/>
<path opacity="0.1" d="M128.12 9.75977V122.24" stroke="#20263C" stroke-miterlimit="10" stroke-dasharray="5.77 5.77"/>
</g>
<path opacity="0.95" d="M41.7 87.11V98.76L51.78 92.93V81.29L41.7 87.11Z" fill="#414042"/>
<path opacity="0.5" d="M40.08 87.11V98.76L30 92.93V81.29L40.08 87.11Z" fill="#414042"/>
<path opacity="0.3" d="M41.7 74.53V85.24L50.98 79.88L41.7 74.53Z" fill="#414042"/>
<path opacity="0.75" d="M40.08 74.53L30.8 79.88L40.08 85.24V74.53Z" fill="#414042"/>
<path opacity="0.95" d="M40.08 71.67V60.02L30 65.85V77.49L40.08 71.67Z" fill="#414042"/>
<path opacity="0.95" d="M41.7 44.58V56.23L51.78 50.4V38.76L41.7 44.58Z" fill="#414042"/>
<path opacity="0.5" d="M40.08 44.58V56.23L30 50.4V38.76L40.08 44.58Z" fill="#414042"/>
<path opacity="0.3" d="M41.7 32V42.71L50.98 37.35L41.7 32Z" fill="#414042"/>
<path opacity="0.75" d="M40.08 32L30.8 37.35L40.08 42.71V32Z" fill="#414042"/>
<path opacity="0.75" d="M30.8 52.72V63.44L40.08 58.08L30.8 52.72Z" fill="#414042"/>
<path opacity="0.15" d="M50.98 52.72L41.7 58.08L50.98 63.44V52.72Z" fill="#414042"/>
<path opacity="0.5" d="M41.7 71.67V60.02L51.78 65.85V77.49L41.7 71.67Z" fill="#414042"/>
<path opacity="0.95" d="M65.2 87.11V98.76L75.28 92.93V81.29L65.2 87.11Z" fill="#414042"/>
<path opacity="0.5" d="M63.58 87.11V98.76L53.5 92.93V81.29L63.58 87.11Z" fill="#414042"/>
<path opacity="0.3" d="M65.2 74.53V85.24L74.48 79.88L65.2 74.53Z" fill="#414042"/>
<path opacity="0.75" d="M63.58 74.53L54.3 79.88L63.58 85.24V74.53Z" fill="#414042"/>
<path opacity="0.95" d="M63.58 71.67V60.02L53.5 65.85V77.49L63.58 71.67Z" fill="#414042"/>
<path opacity="0.95" d="M65.2 44.58V56.23L75.28 50.4V38.76L65.2 44.58Z" fill="#414042"/>
<path opacity="0.5" d="M63.58 44.58V56.23L53.5 50.4V38.76L63.58 44.58Z" fill="#414042"/>
<path opacity="0.3" d="M65.2 32V42.71L74.48 37.35L65.2 32Z" fill="#414042"/>
<path opacity="0.75" d="M63.58 32L54.3 37.35L63.58 42.71V32Z" fill="#414042"/>
<path opacity="0.75" d="M54.3 52.72V63.44L63.58 58.08L54.3 52.72Z" fill="#414042"/>
<path opacity="0.15" d="M74.48 52.72L65.2 58.08L74.48 63.44V52.72Z" fill="#414042"/>
<path opacity="0.5" d="M65.2 71.67V60.02L75.28 65.85V77.49L65.2 71.67Z" fill="#414042"/>
<path opacity="0.95" d="M88.3599 87.11V98.76L98.4498 92.93V81.29L88.3599 87.11Z" fill="#414042"/>
<path opacity="0.5" d="M86.7499 87.11V98.76L76.6599 92.93V81.29L86.7499 87.11Z" fill="#414042"/>
<path opacity="0.3" d="M88.3599 74.53V85.24L97.6398 79.88L88.3599 74.53Z" fill="#414042"/>
<path opacity="0.75" d="M86.75 74.53L77.47 79.88L86.75 85.24V74.53Z" fill="#414042"/>
<path opacity="0.95" d="M86.7499 71.67V60.02L76.6599 65.85V77.49L86.7499 71.67Z" fill="#414042"/>
<path opacity="0.95" d="M88.3599 44.58V56.23L98.4498 50.4V38.76L88.3599 44.58Z" fill="#414042"/>
<path opacity="0.5" d="M86.7499 44.58V56.23L76.6599 50.4V38.76L86.7499 44.58Z" fill="#414042"/>
<path opacity="0.3" d="M88.3599 32V42.71L97.6398 37.35L88.3599 32Z" fill="#414042"/>
<path opacity="0.75" d="M86.75 32L77.47 37.35L86.75 42.71V32Z" fill="#414042"/>
<path opacity="0.75" d="M77.47 52.72V63.44L86.75 58.08L77.47 52.72Z" fill="#414042"/>
<path opacity="0.15" d="M97.6398 52.72L88.3599 58.08L97.6398 63.44V52.72Z" fill="#414042"/>
<path opacity="0.5" d="M88.3599 71.67V60.02L98.4498 65.85V77.49L88.3599 71.67Z" fill="#414042"/>
</svg>
